<svg xmlns="http://www.w3.org/2000/svg" viewBox="0 0 1200 800" fill="none">
  <rect width="1200" height="800" rx="36" fill="#E9EEF5"/>
  <rect x="50" y="50" width="1100" height="700" rx="28" fill="#1F3A5F"/>
  <path d="M50 536c137-48 243-58 334-33 93 25 177 27 258 4 134-38 232-89 508-58v301H50V536Z" fill="#D98E04"/>
  <path d="M50 582c105-12 191-9 276 15 153 43 260 44 386 5 142-44 226-57 438-17v165H50V582Z" fill="#2B2F36"/>
  <rect x="710" y="322" width="270" height="138" rx="20" fill="#F5F7FA" fill-opacity=".14"/>
  <rect x="758" y="291" width="130" height="62" rx="16" fill="#F5F7FA" fill-opacity=".18"/>
  <rect x="662" y="456" width="372" height="34" rx="17" fill="#101723"/>
  <circle cx="742" cy="507" r="36" fill="#101723"/>
  <circle cx="944" cy="507" r="36" fill="#101723"/>
  <path d="M373 477h179l44-60H417l-44 60Z" fill="#F5F7FA"/>
  <path d="M156 146h278v16H156zm0 42h195v16H156z" fill="#F5F7FA" fill-opacity=".16"/>
</svg>
