<svg xmlns="http://www.w3.org/2000/svg" viewBox="0 0 1200 900" fill="none">
  <rect width="1200" height="900" rx="48" fill="#24364F"/>
  <rect x="0" y="0" width="1200" height="900" rx="48" fill="url(#paint0_linear)"/>
  <path d="M0 635c166-62 293-81 381-56 112 31 205 39 313 11 118-30 220-86 506-55v365H0V635Z" fill="#2B2F36"/>
  <path d="M0 706c142-16 250-13 361 22 145 46 262 42 392-5 129-47 223-67 447-23v200H0V706Z" fill="#1A1A1A"/>
  <rect x="660" y="330" width="318" height="162" rx="24" fill="#314764"/>
  <rect x="711" y="292" width="163" height="78" rx="22" fill="#41597B"/>
  <rect x="600" y="484" width="451" height="38" rx="19" fill="#202831"/>
  <rect x="694" y="516" width="80" height="80" rx="40" fill="#11161B"/>
  <rect x="883" y="516" width="80" height="80" rx="40" fill="#11161B"/>
  <path d="M421 532h220l53-75H473l-52 75Z" fill="#D98E04"/>
  <rect x="364" y="514" width="84" height="21" rx="10.5" fill="#D98E04"/>
  <path d="M458 446c45-37 98-69 162-95l20 29c-57 33-105 66-146 100l-36-34Z" fill="#D98E04"/>
  <path d="M742 174h258v83H742z" fill="#F5F7FA" fill-opacity=".08"/>
  <path d="M142 180h350v18H142zm0 48h244v18H142z" fill="#F5F7FA" fill-opacity=".14"/>
  <path d="M141 761h198v14H141zm0 38h276v14H141z" fill="#F5F7FA" fill-opacity=".14"/>
  <circle cx="221" cy="616" r="54" fill="#D98E04" fill-opacity=".12"/>
  <circle cx="1020" cy="190" r="72" fill="#D98E04" fill-opacity=".12"/>
  <defs>
    <linearGradient id="paint0_linear" x1="145" y1="70" x2="1058" y2="780" gradientUnits="userSpaceOnUse">
      <stop stop-color="#1F3A5F"/>
      <stop offset="1" stop-color="#303A47"/>
    </linearGradient>
  </defs>
</svg>
